<svg width="16" height="16" viewBox="0 0 16 16" fill="none" xmlns="http://www.w3.org/2000/svg">
<path fill-rule="evenodd" clip-rule="evenodd" d="M10 4C10 5.10457 9.10457 6 8 6C6.89543 6 6 5.10457 6 4C6 2.89543 6.89543 2 8 2C9.10457 2 10 2.89543 10 4ZM12 4C12 6.20914 10.2091 8 8 8C5.79086 8 4 6.20914 4 4C4 1.79086 5.79086 0 8 0C10.2091 0 12 1.79086 12 4ZM12 15V16H14V15C14 11.6863 11.3137 9 8 9C4.68629 9 2 11.6863 2 15V16H4V15C4 12.7909 5.79086 11 8 11C10.2091 11 12 12.7909 12 15Z" fill="#1B4332"/>
</svg>